<svg fill="#ffffff" viewBox="0 0 32 32" version="1.1" xmlns="http://www.w3.org/2000/svg" transform="rotate(0)matrix(-1, 0, 0, 1, 0, 0)" stroke="#ffffff"><g id="SVGRepo_bgCarrier" stroke-width="0"></g><g id="SVGRepo_tracerCarrier" stroke-linecap="round" stroke-linejoin="round"></g><g id="SVGRepo_iconCarrier"> <title>user-plus</title> <path d="M13.5 15.824c3.48-0 6.302-2.822 6.302-6.302s-2.822-6.302-6.302-6.302-6.302 2.822-6.302 6.302c0 0 0 0 0 0.001v-0c0.004 3.479 2.824 6.298 6.302 6.302h0zM13.5 4.72c2.652 0 4.802 2.15 4.802 4.802s-2.15 4.802-4.802 4.802c-2.652 0-4.802-2.15-4.802-4.802v-0c0.003-2.651 2.151-4.8 4.802-4.803h0zM13.5 18.033c-5.956 0.025-10.935 4.183-12.216 9.753l-0.016 0.085c-0.011 0.048-0.017 0.103-0.017 0.16 0 0.414 0.336 0.75 0.75 0.75 0.357 0 0.656-0.25 0.731-0.585l0.001-0.005c1.124-4.988 5.517-8.658 10.768-8.658s9.643 3.67 10.754 8.584l0.014 0.074c0.072 0.34 0.37 0.591 0.726 0.591 0.059 0 0.117-0.007 0.172-0.020l-0.005 0.001c0.34-0.076 0.59-0.375 0.59-0.733 0-0.057-0.006-0.112-0.018-0.165l0.001 0.005c-1.299-5.654-6.276-9.812-12.23-9.838h-0.003zM30 13.753h-2.752v-2.753c0-0.414-0.336-0.75-0.75-0.75s-0.75 0.336-0.75 0.75v0 2.753h-2.754c-0.414 0-0.75 0.336-0.75 0.75s0.336 0.75 0.75 0.75v0h2.754v2.753c0 0.414 0.336 0.75 0.75 0.75s0.75-0.336 0.75-0.75v0-2.753h2.752c0.414 0 0.75-0.336 0.75-0.75s-0.336-0.75-0.75-0.75v0z"></path> </g></svg>