<svg fill="#07A5C3" height="200px" width="200px" version="1.1" id="Capa_1" xmlns="http://www.w3.org/2000/svg" xmlns:xlink="http://www.w3.org/1999/xlink" viewBox="0 0 486.201 486.201" xml:space="preserve"><g id="SVGRepo_bgCarrier" stroke-width="0"></g><g id="SVGRepo_tracerCarrier" stroke-linecap="round" stroke-linejoin="round"></g><g id="SVGRepo_iconCarrier"> <g> <g> <path d="M325.5,66.897c6.7-14.4,13.4-28.8,20.5-44.1c-78.2-32.9-154.4-31.3-227.4,12.1c-70.5,42-108.8,105.7-118.6,187.8 c16.8,1.5,32.6,2.8,48.4,4.2C57,102.897,194.1,7.797,325.5,66.897z"></path> <path d="M482.7,201.697c-15.7,2.7-31.4,5.5-47.7,8.3c8.4,56.8-3.2,107.9-37.9,152.8c-34.5,44.6-80.6,69.1-137.1,75.4 c1.4,16,2.7,31.7,4.1,47.3C382.3,481.297,509,362.497,482.7,201.697z"></path> <path d="M47.7,260.997c-15,1.3-30.7,2.7-46.4,4c3.6,99.1,90.1,210.6,220.5,221.2c1.4-16.1,2.8-31.7,4.1-47 C124,422.197,64.9,363.097,47.7,260.997z"></path> <path d="M397.3,125.097c12.2,15.8,21.5,33,28.8,52.2c15.2-5.5,30.1-10.9,45.7-16.6c-18.1-48-47.5-86.2-89.2-116.2 c-9.3,13.2-18.4,26.2-27.9,39.8C370.8,95.997,385.2,109.397,397.3,125.097z"></path> <path d="M397.3,243.097c0-85.2-69-154.2-154.2-154.2s-154.2,69-154.2,154.2s69,154.2,154.2,154.2S397.3,328.297,397.3,243.097z M287.4,303.897c-6.7,8.2-15.5,13.7-25.7,16.5c-4.5,1.2-6.5,3.6-6.2,8.2c0.2,4.5,0,9.1,0,13.7c0,4.1-2.1,6.2-6.1,6.3 c-2.6,0.1-5.2,0.1-7.8,0.1c-2.3,0-4.6,0-6.9-0.1c-4.3-0.1-6.3-2.5-6.4-6.7c0-3.3-0.1-6.7-0.1-10c-0.1-7.3-0.3-7.6-7.4-8.8 c-9-1.4-17.9-3.5-26.2-7.5c-6.5-3.2-7.2-4.8-5.3-11.6c1.4-5.1,2.8-10.1,4.4-15.2c1.2-3.7,2.2-5.3,4.2-5.3c1.1,0,2.6,0.5,4.6,1.6 c9.1,4.8,18.9,7.4,29,8.7c1.7,0.2,3.5,0.3,5.2,0.3c4.8,0,9.4-0.9,13.9-2.8c11.3-4.9,13.1-18.1,3.5-26c-3.3-2.7-7-4.7-10.8-6.4 c-9.9-4.4-20.3-7.7-29.7-13.3c-15.2-9.1-24.9-21.6-23.8-40.2c1.3-21,13.1-34,32.3-41c7.9-2.9,8-2.8,8-11.1c0-2.8,0-5.6,0-8.4 c0.2-6.2,1.2-7.3,7.4-7.5c0.7,0,1.4,0,2.2,0c1.2,0,2.4,0,3.6,0c0.5,0,1,0,1.4,0c11.8,0,11.8,0.5,11.9,13.2c0,9.4,0,9.4,9.4,10.9 c7.1,1.1,14,3.2,20.6,6.1c3.6,1.6,5,4.2,3.9,8c-1.7,5.7-3.2,11.5-5,17.1c-1.1,3.5-2.2,5-4.2,5c-1.1,0-2.5-0.5-4.3-1.4 c-9.2-4.4-18.7-6.6-28.7-6.6c-1.3,0-2.6,0-3.9,0.1c-3,0.2-5.9,0.6-8.7,1.8c-9.9,4.3-11.5,15.2-3.1,21.9c4.2,3.4,9.1,5.9,14.2,8 c8.7,3.6,17.5,7.1,25.8,11.7C298.9,248.097,306,281.297,287.4,303.897z"></path> </g> </g> </g></svg>