<?xml version="1.0" standalone="no"?>
<!DOCTYPE svg PUBLIC "-//W3C//DTD SVG 20010904//EN"
 "http://www.w3.org/TR/2001/REC-SVG-20010904/DTD/svg10.dtd">
<svg version="1.0" xmlns="http://www.w3.org/2000/svg"
 width="600.000000pt" height="469.000000pt" viewBox="0 0 600.000000 469.000000"
 preserveAspectRatio="xMidYMid meet">

<g transform="translate(0.000000,469.000000) scale(0.100000,-0.100000)"
fill="#000000" stroke="none">
<path d="M2601 3514 c-12 -15 -33 -63 -47 -108 -45 -140 -44 -354 2 -556 9
-39 18 -69 20 -67 3 2 -2 46 -10 98 -24 148 -30 313 -16 411 13 92 63 219 80
202 14 -15 16 -192 2 -286 -11 -79 -10 -100 7 -204 11 -64 23 -119 27 -123 4
-3 3 39 -2 94 -11 129 -8 227 12 323 17 84 57 182 73 182 14 0 12 22 15 -270
3 -310 8 -340 129 -733 21 -65 37 -136 37 -158 0 -49 17 -51 26 -4 5 30 9 35
28 30 11 -4 28 -9 37 -11 9 -2 37 -35 63 -73 l47 -69 -17 -48 c-25 -77 -74
-128 -161 -171 -73 -36 -82 -38 -172 -38 -114 1 -156 18 -219 90 -43 49 -58
98 -43 138 12 30 67 87 103 106 23 12 30 11 55 -6 27 -20 73 -38 73 -30 0 2
-20 17 -45 32 -24 16 -42 32 -40 36 3 4 -5 10 -18 13 -31 9 -120 117 -184 222
-115 193 -213 483 -213 632 0 100 17 89 23 -15 3 -54 15 -134 27 -178 24 -94
62 -195 72 -195 10 0 12 -9 -21 106 -55 191 -63 320 -28 419 l15 40 21 -50
c11 -27 25 -58 31 -67 5 -10 10 -46 10 -82 0 -89 43 -327 56 -313 3 3 -2 55
-10 116 -30 209 -18 412 28 499 l14 27 21 -49 c28 -63 37 -53 17 18 -19 65
-27 72 -55 48 -20 -16 -53 -123 -63 -207 l-4 -30 -11 39 c-28 93 -92 103 -109
18 -4 -18 -14 -34 -25 -37 -60 -19 -42 -213 41 -450 64 -179 183 -386 274
-475 48 -46 55 -60 32 -60 -8 0 -29 -12 -47 -27 l-32 -27 -29 34 c-16 19 -101
124 -189 233 -145 178 -189 225 -173 182 4 -8 1 -15 -5 -15 -8 0 -6 -11 5 -31
l16 -31 -48 36 c-52 40 -64 44 -64 21 0 -26 30 -76 79 -135 l46 -55 -45 38
c-65 54 -128 90 -145 83 -14 -5 -13 -11 4 -44 11 -21 27 -44 36 -52 9 -7 20
-21 26 -31 7 -14 1 -13 -36 7 -44 25 -85 29 -92 8 -6 -17 39 -76 85 -111 51
-38 50 -40 -9 -14 -90 40 -140 32 -114 -18 20 -39 72 -76 178 -126 151 -71
262 -106 354 -112 79 -6 82 -7 92 -33 5 -16 26 -47 47 -69 20 -23 35 -43 33
-45 -2 -2 -14 -9 -26 -15 -38 -19 -28 -45 32 -85 30 -20 55 -39 55 -43 0 -3
-7 -15 -17 -25 -14 -16 -14 -18 0 -18 8 0 18 6 20 13 4 9 8 9 15 -1 7 -11 11
-10 16 4 8 22 -23 57 -83 92 l-44 26 26 22 26 22 54 -22 c48 -18 54 -23 42
-36 -18 -20 -8 -34 38 -54 31 -13 37 -19 32 -36 -5 -16 -2 -19 14 -17 51 8 36
50 -26 73 -46 18 -46 18 -23 33 12 8 48 16 79 18 139 8 270 91 321 205 13 29
25 54 26 56 1 1 25 -12 54 -30 49 -30 60 -33 154 -36 160 -6 337 44 442 124
32 25 55 34 82 34 61 0 162 29 221 62 58 33 151 120 151 141 0 8 -28 12 -93
12 -50 1 -108 4 -128 8 l-36 7 19 40 c29 57 35 172 13 245 -39 135 -108 226
-209 275 l-61 29 69 1 c38 0 67 2 65 5 -11 10 -243 4 -316 -9 l-43 -8 -1 84
c-1 103 -5 132 -29 186 -13 28 -25 42 -38 42 -12 0 -24 11 -32 29 -15 37 -38
46 -60 26 -13 -12 -23 -13 -43 -6 -17 7 -30 6 -41 -2 -18 -13 -48 -101 -39
-111 4 -3 2 -6 -3 -5 -5 0 -22 21 -39 47 -48 75 -95 63 -95 -24 l0 -26 -26 31
c-29 35 -80 43 -91 14 -4 -9 10 -84 30 -167 36 -147 42 -183 52 -315 5 -58 2
-68 -24 -110 -53 -83 -66 -128 -65 -226 1 -57 7 -106 17 -133 16 -43 16 -43
-4 -37 -12 4 -29 8 -38 9 -11 2 -30 43 -63 142 -101 301 -129 471 -122 753 2
107 2 203 -2 213 -10 33 -47 21 -76 -26 -16 -24 -28 -48 -28 -55 0 -6 -4 -11
-8 -11 -5 0 -10 25 -11 56 -2 57 -14 94 -31 94 -5 0 -18 -12 -29 -26z m824
-127 c10 -25 11 -44 4 -78 -12 -49 -2 -182 12 -173 5 3 9 -5 9 -18 0 -13 3
-33 6 -46 5 -19 0 -24 -32 -37 -93 -37 -187 -91 -248 -141 l-66 -54 0 47 c0
67 -25 224 -50 313 -11 41 -23 92 -27 113 -5 33 -3 37 15 37 12 0 29 -13 42
-35 23 -38 75 -236 85 -327 4 -32 11 -58 16 -58 17 0 9 123 -17 256 -27 142
-28 187 -4 192 35 6 72 -99 91 -255 7 -57 15 -103 19 -103 20 0 17 137 -5 223
-5 19 -1 51 10 90 23 77 32 88 51 63 10 -14 14 -49 14 -122 0 -101 16 -204 31
-204 23 0 23 199 0 277 -7 23 -5 37 6 52 19 28 22 27 38 -12z m74 -86 c6 -19
11 -80 11 -136 0 -82 -3 -104 -15 -109 -13 -5 -15 14 -15 128 0 74 -3 143 -6
153 -5 12 -4 15 3 8 6 -5 15 -25 22 -44z m62 -292 c-73 -48 -123 -104 -161
-179 -60 -119 -48 -133 19 -21 57 96 129 172 199 209 68 36 98 39 171 15 166
-53 271 -285 215 -474 -9 -30 -17 -55 -19 -57 -6 -7 -63 25 -98 55 -20 18 -43
33 -50 33 -6 0 -43 -34 -81 -76 -62 -68 -68 -78 -63 -108 9 -58 50 -131 75
-134 12 -2 22 -7 22 -12 0 -16 -91 -63 -189 -97 -84 -29 -109 -33 -196 -33
-84 0 -108 4 -151 24 -109 51 -208 196 -229 337 -8 57 24 185 62 243 47 73
155 169 244 218 93 51 217 97 263 98 26 0 23 -4 -33 -41z m-1242 -609 c14 0
14 13 -1 28 -7 7 -9 12 -6 12 4 0 30 -30 59 -67 29 -38 71 -88 94 -113 l42
-45 -14 -46 -13 -46 -88 14 c-172 27 -368 102 -455 174 -77 64 -39 58 130 -20
102 -46 173 -64 173 -43 0 19 -28 40 -75 57 -74 27 -158 80 -194 120 -29 33
-39 55 -25 55 3 0 73 -41 155 -91 83 -50 154 -88 157 -84 7 7 -5 18 -129 123
-69 58 -135 129 -127 137 1 1 59 -42 128 -96 114 -90 162 -120 176 -107 2 3
-32 41 -77 84 -45 44 -95 99 -112 124 -23 35 -5 20 80 -62 60 -60 115 -108
122 -108z m1622 89 c50 -25 170 -51 221 -48 56 5 55 -6 -4 -31 -79 -35 -223
-40 -315 -11 -37 12 -76 28 -87 36 -18 13 -16 17 28 67 25 29 46 57 46 61 0 5
16 -5 35 -22 20 -17 54 -40 76 -52z m-1670 14 c13 -16 12 -17 -3 -4 -10 7 -18
15 -18 17 0 8 8 3 21 -13z m30 -40 c13 -16 12 -17 -3 -4 -10 7 -18 15 -18 17
0 8 8 3 21 -13z m1645 -111 c60 -2 128 1 150 7 l39 10 -25 -19 c-43 -34 -131
-61 -216 -67 -102 -7 -137 6 -159 60 -26 65 -22 69 43 39 48 -22 74 -27 168
-30z"/>
<path d="M3836 2748 c-20 -32 -29 -73 -22 -103 16 -64 73 7 61 76 -8 48 -20
56 -39 27z"/>
<path d="M3599 2624 c-7 -9 -15 -47 -17 -86 -4 -63 -3 -70 14 -66 20 4 31 38
36 110 3 54 -9 70 -33 42z"/>
</g>
</svg>
